<svg width="119" height="119" viewBox="0 0 119 119" fill="none" xmlns="http://www.w3.org/2000/svg">
<g id="ion:documents">
<path id="Vector" d="M69.3524 57.6406C69.5355 57.6408 69.7146 57.5869 69.8672 57.4856C70.0198 57.3843 70.1391 57.2402 70.2101 57.0714C70.2811 56.9026 70.3007 56.7165 70.2664 56.5366C70.232 56.3567 70.1453 56.191 70.0171 56.0602L51.7952 37.5315C51.6657 37.4 51.5 37.31 51.3192 37.273C51.1384 37.236 50.9507 37.2537 50.78 37.3237C50.6092 37.3938 50.4632 37.513 50.3605 37.6663C50.2577 37.8196 50.203 38.0001 50.2031 38.1846V54.8516C50.2031 55.5913 50.497 56.3007 51.02 56.8237C51.5431 57.3468 52.2525 57.6406 52.9922 57.6406H69.3524Z" fill="#FF5F15" fill-opacity="0.9"/>
<path id="Vector_2" d="M45.7871 62.0567C44.8325 61.1148 44.0739 59.9932 43.5553 58.7565C43.0367 57.5198 42.7683 56.1926 42.7656 54.8516V33.4688H26.0313C22.0897 33.4804 18.313 35.0513 15.5259 37.8384C12.7388 40.6255 11.1679 44.4023 11.1562 48.3438V100.406C11.1563 104.351 12.7234 108.135 15.513 110.924C18.3026 113.714 22.0862 115.281 26.0313 115.281H59.5C63.4451 115.281 67.2286 113.714 70.0182 110.924C72.8078 108.135 74.375 104.351 74.375 100.406V65.0781H52.9922C51.651 65.0764 50.3236 64.8084 49.0868 64.2897C47.8499 63.771 46.7284 63.012 45.7871 62.0567ZM86.4609 27.8906H102.821C103.004 27.8908 103.183 27.8369 103.336 27.7356C103.489 27.6343 103.608 27.4902 103.679 27.3214C103.75 27.1526 103.769 26.9665 103.735 26.7866C103.701 26.6067 103.614 26.441 103.486 26.3102L85.264 7.7815C85.1345 7.65001 84.9688 7.56004 84.788 7.52303C84.6072 7.48603 84.4195 7.50367 84.2487 7.57371C84.078 7.64375 83.932 7.76302 83.8292 7.91633C83.7265 8.06964 83.6717 8.25006 83.6719 8.43461V25.1016C83.6719 25.8413 83.9657 26.5507 84.4888 27.0737C85.0118 27.5968 85.7212 27.8906 86.4609 27.8906Z" fill="#FF5F15" fill-opacity="0.9"/>
<path id="Vector_3" d="M86.4609 35.3281C83.7551 35.3075 81.1659 34.2234 79.2525 32.31C77.3391 30.3966 76.255 27.8074 76.2344 25.1016V3.71875H51.1328C47.4356 3.72306 43.8911 5.19367 41.2767 7.80799C38.6624 10.4223 37.1918 13.9669 37.1875 17.6641V26.0312H46.9771C48.2267 26.0361 49.463 26.2879 50.6149 26.7721C51.7668 27.2564 52.8117 27.9635 53.6895 28.8529L79.0606 54.6517C80.8308 56.4475 81.8192 58.8703 81.8102 61.3919V92.9688H94.1402C101.696 92.9688 107.841 86.712 107.841 79.0234V35.3281H86.4609Z" fill="#FF5F15" fill-opacity="0.9"/>
</g>
</svg>
